<svg width="80" height="80" viewBox="0 0 80 80" fill="none" xmlns="http://www.w3.org/2000/svg">
<g opacity="0.81" filter="url(#filter0_d_11_1808)">
<path d="M29.4792 8C37.0214 8.02791 44.5675 8 52.1097 8.01595C54.9956 8.11561 57.8698 8.77339 60.4876 10.0132C60.7124 10.1527 60.9489 10.2644 61.1934 10.368C61.5403 10.5633 61.8952 10.7627 62.2263 10.9859C64.8679 12.5407 67.0836 14.7731 68.7789 17.3325C69.4492 18.4168 70.0326 19.553 70.5412 20.7211C71.2233 22.4951 71.7201 24.3528 71.9014 26.2504C71.9527 26.5693 71.9961 26.8962 71.9961 27.2231C71.9961 35.7065 71.9921 44.1938 72 52.6772C71.8699 54.7662 71.4441 56.8432 70.7187 58.8085C70.5097 59.2749 70.3678 59.7733 70.1036 60.2158C69.9775 60.5347 69.8197 60.8337 69.6542 61.1327C69.6108 61.2244 69.528 61.4077 69.4846 61.4994C69.2087 61.9858 68.8932 62.4442 68.5975 62.9226C68.0219 63.8116 67.3202 64.605 66.6657 65.4381C65.3843 66.7657 63.969 67.9776 62.384 68.9144C61.4102 69.5802 60.3378 70.1064 59.2339 70.521C56.9827 71.4658 54.5462 71.9083 52.1175 71.9801C37.4156 72.004 22.7137 71.9601 8.00789 72C8.02366 58.2624 8.00789 44.5247 8.01577 30.7831C8.0276 30.3406 8.02366 29.8941 8 29.4476C15.1597 29.4795 22.3195 29.4117 29.4792 29.4795C29.5068 22.3197 29.5068 15.1598 29.4792 8ZM49.1054 29.5353C42.5962 29.5313 36.087 29.5433 29.5738 29.5313C29.5699 36.5357 29.5896 43.5361 29.5659 50.5364C36.6153 50.5364 43.6686 50.5444 50.7179 50.5324C50.6943 43.5161 50.6943 36.5038 50.7179 29.4875C50.1817 29.5592 49.6455 29.5353 49.1054 29.5353Z" fill="#1CF396"/>
</g>
<defs>
<filter id="filter0_d_11_1808" x="0.4" y="0.4" width="79.2" height="79.2" filterUnits="userSpaceOnUse" color-interpolation-filters="sRGB">
<feFlood flood-opacity="0" result="BackgroundImageFix"/>
<feColorMatrix in="SourceAlpha" type="matrix" values="0 0 0 0 0 0 0 0 0 0 0 0 0 0 0 0 0 0 127 0" result="hardAlpha"/>
<feOffset/>
<feGaussianBlur stdDeviation="3.8"/>
<feComposite in2="hardAlpha" operator="out"/>
<feColorMatrix type="matrix" values="0 0 0 0 0 0 0 0 0 0 0 0 0 0 0 0 0 0 0.2 0"/>
<feBlend mode="normal" in2="BackgroundImageFix" result="effect1_dropShadow_11_1808"/>
<feBlend mode="normal" in="SourceGraphic" in2="effect1_dropShadow_11_1808" result="shape"/>
</filter>
</defs>
</svg>
